<svg stroke="currentColor" fill="currentColor" stroke-width="0" viewBox="0 0 1024 1024" height="1em" width="1em" xmlns="http://www.w3.org/2000/svg" class="text-2xl text-white"><path d="M320.408 719.532c0-173.668 0.001-346.97 0.001-520.272 0-26.228 10.907-46.67 32.823-61.036 11.325-7.424 24.006-10.712 37.518-10.72 38.715-0.022 77.431-0.158 116.145 0.037 35.256 0.178 63.543 24.261 69.502 58.861 0.659 3.828 0.896 7.773 0.897 11.665 0.042 209.33 0.055 418.66 0.021 627.989-0.006 38.991-31.007 70.146-69.962 70.277-39.081 0.132-78.163 0.145-117.244-0.005-38.698-0.148-69.526-31.071-69.665-69.811-0.127-35.539-0.033-71.079-0.036-106.984z"></path><path d="M185.269 127.877c24.811-0.402 44.57 8.87 58.992 28.767 8.846 12.203 12.246 26.112 12.236 41.063-0.053 74.014-0.023 148.028-0.023 222.042 0 135.57-0.028 271.14 0.037 406.71 0.008 15.912-3.877 30.529-13.629 43.187-12.875 16.712-29.948 26.379-51.144 26.633-40.421 0.485-80.85 0.209-121.278 0.169-4.625-0.005-9.278-0.292-13.869-0.852-26.752-3.274-51.505-27.569-55.266-54.33-0.796-5.659-1.252-11.416-1.253-17.13-0.062-208.729-0.042-417.459-0.073-626.187-0.003-21.005 6.991-38.939 22.786-53.065 13.058-11.678 28.544-17.008 45.968-17.006 38.716 0.005 77.434 0.001 116.516 0.001z"></path><path d="M819.719 221.982c30.228 3.124 53.406 23.090 61.895 53.436 26.713 95.49 53.336 191.007 79.986 286.515 19.881 71.247 39.807 142.48 59.601 213.751 9.874 35.55-7.023 71.282-40.479 85.112-8.419 3.48-17.445 5.533-26.255 8.017-26.797 7.556-53.585 15.153-80.451 22.454-39.611 10.764-77.446-10.713-88.491-50.228-37.186-133.041-74.288-266.107-111.426-399.161-9.386-33.627-18.924-67.213-28.14-100.886-8.075-29.504-0.699-54.718 22.215-75.059 7.951-7.059 17.45-11.568 27.712-14.428 32.225-8.981 64.433-18.027 96.668-26.97 8.766-2.432 17.696-3.664 27.164-2.553z"></path></svg>