<svg xmlns="http://www.w3.org/2000/svg" version="1.1" id="Layer_1" x="0px" y="0px" viewBox="0 0 100 43.91" enable-background="new 0 0 100 43.91"><script xmlns=""/>
  <path fill="#FFF" d="M 75.617 23.232 L 79.969 17.251 C 78.541 16.917 77.184 16.332 75.961 15.523 C 74.752 14.604 74.076 13.144 74.158 11.627 C 74.096 10.096 74.835 8.642 76.108 7.79 C 77.8 6.782 79.758 6.309 81.724 6.433 C 89.374 6.433 91.366 10.455 92.719 12.157 L 96.822 6.518 C 96.128 5.388 95.251 4.382 94.226 3.542 C 91.369 1.18 87.162 0 81.605 0 C 76.715 0 72.893 1.072 70.138 3.217 C 67.432 5.252 65.888 8.479 66.001 11.864 C 66.001 17.601 69.206 21.223 75.617 23.232 Z M 96.709 22.929 C 94.792 21.222 91.822 19.885 87.799 18.918 L 83.398 24.965 C 85.7 25.426 87.892 26.328 89.851 27.621 C 91.084 28.472 91.788 29.901 91.71 31.398 C 91.802 33.178 90.977 34.882 89.523 35.913 C 87.626 37.073 85.417 37.62 83.198 37.477 C 76.837 37.477 73.838 35.369 70.775 29.88 L 66.385 35.913 C 67.168 37.525 68.297 38.946 69.691 40.073 C 72.824 42.631 77.247 43.91 82.961 43.91 C 88.32 43.91 92.498 42.779 95.493 40.516 C 98.477 38.279 100.159 34.709 99.986 30.984 C 100.145 27.945 98.944 24.993 96.708 22.929 L 96.709 22.929 Z M 58.886 42.97 L 57.052 42.97 L 57.052 0.945 L 58.882 0.945 L 58.886 42.97 Z M 9.937 42.969 L 18.98 42.969 L 25.85 33.528 L 21.328 27.313 L 9.937 42.969 Z M 49.558 0.947 L 40.515 0.947 L 34.894 8.671 L 39.416 14.885 L 49.558 0.947 Z M 20.229 0.947 L 11.185 0.947 L 41.763 42.963 L 50.806 42.963 L 20.229 0.947 Z"/>
<script xmlns=""/></svg>